{"title":"World War Z (2013) 720p Hindi-Eng DD 5.1Ch Org By - RAJPUT (Team","uid":9059901,"size":2532998304,"categoryP":"video","categoryS":"hd___movies","magnet":"?xt=urn:btih:de8c4ba6ab9b26a7b0884fa7335aad5cca81cc92&amp;dn=World+War+Z+%282013%29+720p+Hindi-Eng+DD+5.1Ch+Org+By+-+RAJPUT+%28Team&amp;tr=udp%3A%2F%2Ftracker.openbittorrent.com%3A80&amp;tr=udp%3A%2F%2Fopen.demonii.com%3A1337&amp;tr=udp%3A%2F%2Ftracker.coppersurfer.tk%3A6969&amp;tr=udp%3A%2F%2Fexodus.desync.com%3A6969","seeders":1,"leechers":0,"uploader":"hirenraj","files":17,"time":1382026853,"description":"General\n================================================================================================\nFormat                                   : Matroska\nFormat version                           : Version 4 / Version 2\nFile size                                : 2.33 GiB\nDuration                                 : 1h 56mn\nOverall bit rate                         : 2 877 Kbps\nMovie name                               : World War Z (2013) 720p Hindi-Eng DD 5.1Ch\n\n================================================================================================\nVideo\n================================================================================================\nID                                       : 1\nFormat                                   : AVC\nFormat/Info                              : Advanced Video Codec\nFormat profile                           : &lt;a class=&quot;__cf_email__&quot; href=&quot;/cdn-cgi/l/email-protection&quot; data-cfemail=&quot;094468606749453d2739&quot;&gt;[email&amp;#160;protected]&lt;/a&gt;&lt;script cf-hash='f9e31' type=&quot;text/javascript&quot;&gt;\n/* &lt;![CDATA[ */!function(){try{var t=&quot;currentScript&quot;in document?document.currentScript:function(){for(var t=document.getElementsByTagName(&quot;script&quot;),e=t.length;e--;)if(t[e].getAttribute(&quot;cf-hash&quot;))return t[e]}();if(t&amp;&amp;t.previousSibling){var e,r,n,i,c=t.previousSibling,a=c.getAttribute(&quot;data-cfemail&quot;);if(a){for(e=&quot;&quot;,r=parseInt(a.substr(0,2),16),n=2;a.length-n;n+=2)i=parseInt(a.substr(n,2),16)^r,e+=String.fromCharCode(i);e=document.createTextNode(e),c.parentNode.replaceChild(e,c)}}}catch(u){}}();/* ]]&gt; */&lt;/script&gt;\nFormat settings, CABAC                   : Yes\nFormat settings, ReFrames                : 4 frames\nCodec ID                                 : V_MPEG4/ISO/AVC\nDuration                                 : 1h 56mn\nBit rate                                 : 2 250 Kbps\nWidth                                    : 1 280 pixels\nHeight                                   : 534 pixels\nDisplay aspect ratio                     : 3.596\nFrame rate                               : 23.976 fps\nColor space                              : YUV\nChroma subsampling                       : 2.40:1\nBit depth                                : 8 bits\nBits/(Pixel*Frame)                       : 0.137\nStream size                              : 1.79 GiB (77%)\nLanguage                                 : English\nDefault                                  : Yes\nForced                                   : No\n================================================================================================\n\n================================================================================================\nAudio #1\n================================================================================================\nID                                       : 2\nFormat                                   : AC-3\nFormat/Info                              : Audio Coding 3\nMode extension                           : CM (complete main)\nFormat settings, Endianness              : Big\nCodec ID                                 : A_AC3\nDuration                                 : 1h 56mn\nBit rate mode                            : Constant\nBit rate                                 : 224 Kbps\nChannel count                            : 6 channels\nChannel positions                        : Front: L C R, Side: L R, LFE\nSampling rate                            : 48.0 KHz\nBit depth                                : 16 bits\nCompression mode                         : Lossy\nStream size                              : 186 MiB (8%)\nTitle                                    : DOLBY DIGITAL 5.1CH ORG BY - RAJPUT\nLanguage                                 : Hindi\nDefault                                  : Yes\nForced                                   : No\n================================================================================================\n\n================================================================================================\nAudio #2\n================================================================================================\nID                                       : 3\nFormat                                   : AC-3\nFormat/Info                              : Audio Coding 3\nMode extension                           : CM (complete main)\nFormat settings, Endianness              : Big\nCodec ID                                 : A_AC3\nDuration                                 : 1h 56mn\nBit rate mode                            : Constant\nBit rate                                 : 384 Kbps\nChannel count                            : 6 channels\nChannel positions                        : Front: L C R, Side: L R, LFE\nSampling rate                            : 48.0 KHz\nBit depth                                : 16 bits\nCompression mode                         : Lossy\nStream size                              : 319 MiB (13%)\nTitle                                    : DOLBY DIGITAL 5.1CH ORG BY - RAJPUT\nLanguage                                 : English\nDefault                                  : No\nForced                                   : No\n================================================================================================\nText #1\nID                                       : 4\nFormat                                   : PGS\nMuxing mode                              : zlib\nCodec ID                                 : S_HDMV/PGS\nCodec ID/Info                            : The same subtitle format used on BDs/HD-DVDs\nTitle                                    : Subtitle\nLanguage                                 : Hindi\nDefault                                  : Yes\nForced                                   : No\n\nText #2\nID                                       : 5\nFormat                                   : PGS\nMuxing mode                              : zlib\nCodec ID                                 : S_HDMV/PGS\nCodec ID/Info                            : The same subtitle format used on BDs/HD-DVDs\nTitle                                    : Subtitle\nLanguage                                 : English\nDefault                                  : No\nForced                                   : No\n\nText #3\nID                                       : 6\nFormat                                   : PGS\nMuxing mode                              : zlib\nCodec ID                                 : S_HDMV/PGS\nCodec ID/Info                            : The same subtitle format used on BDs/HD-DVDs\nTitle                                    : Subtitle\nLanguage                                 : English\nDefault                                  : No\nForced                                   : No\n\nMenu\n00:00:00.000                             : en:Chapter 1\n00:05:05.180                             : en:Chapter 2\n00:13:04.659                             : en:Chapter 3\n00:20:31.313                             : en:Chapter 4\n00:27:02.704                             : en:Chapter 5\n00:32:38.123                             : en:Chapter 6\n00:39:35.415                             : en:Chapter 7\n00:49:06.152                             : en:Chapter 8\n00:55:22.152                             : en:Chapter 9\n01:01:41.364                             : en:Chapter 10\n01:09:18.655                             : en:Chapter 11\n01:17:03.160                             : en:Chapter 12\n01:22:09.842                             : en:Chapter 13\n01:27:51.558                             : en:Chapter 14\n01:36:41.671                             : en:Chapter 15\n01:45:14.183                             : en:Chapter 16\n01:48:46.687                             : en:Chapter 17\n","torrent":{"xt":"urn:btih:de8c4ba6ab9b26a7b0884fa7335aad5cca81cc92","amp;dn":"World+War+Z+%282013%29+720p+Hindi-Eng+DD+5.1Ch+Org+By+-+RAJPUT+%28Team","amp;tr":["udp%3A%2F%2Ftracker.openbittorrent.com%3A80","udp%3A%2F%2Fopen.demonii.com%3A1337","udp%3A%2F%2Ftracker.coppersurfer.tk%3A6969","udp%3A%2F%2Fexodus.desync.com%3A6969"],"infoHash":"de8c4ba6ab9b26a7b0884fa7335aad5cca81cc92","infoHashBuffer":{"type":"Buffer","data":[222,140,75,166,171,155,38,167,176,136,79,167,51,90,173,92,202,129,204,146]},"announce":[],"urlList":[]}}